<svg xmlns="http://www.w3.org/2000/svg" width="512" height="512" viewBox="0 0 512 512">
        
			<defs>
				<clipPath id="clip-shape">
					<path d="M 256,0 C 51.2,0 0,51.2 0,256 C 0,460.8 51.2,512 256,512 C 460.8,512 512,460.8 512,256 C 512,51.2 460.8,0 256,0 Z" />
				</clipPath>
			</defs>
		
		<defs>
			
		</defs>
        <g clip-path="url(#clip-shape)">
            <rect width="100%" height="100%" fill="#64748b" />
			
            <g transform="translate(256, 256) scale(19.166666666666664) rotate(30) translate(-12, -12)" opacity="0.43" >
					<title xmlns="">lucide:hexagon</title>
<path xmlns="http://www.w3.org/2000/svg" fill="none" stroke="currentColor" stroke-linecap="round" stroke-linejoin="round" stroke-width="2" d="M21 16V8a2 2 0 0 0-1-1.73l-7-4a2 2 0 0 0-2 0l-7 4A2 2 0 0 0 3 8v8a2 2 0 0 0 1 1.73l7 4a2 2 0 0 0 2 0l7-4A2 2 0 0 0 21 16"/>
				</g>
<g transform="translate(256, 256) scale(7.708333333333333) rotate(0) translate(-24, -24)" opacity="0.42" >
					<title xmlns="" fill="#000000" stroke="#ffffff">healthicons:n</title>
<path xmlns="http://www.w3.org/2000/svg" fill="#000000" fill-rule="evenodd" d="M16 17.524V36a2 2 0 1 1-4 0V12a2 2 0 0 1 3.536-1.28L32 30.476V12a2 2 0 1 1 4 0v24a2 2 0 0 1-3.536 1.28z" clip-rule="evenodd" stroke="#ffffff"/>
				</g>
        </g>
    </svg>
